<svg xmlns="http://www.w3.org/2000/svg" xmlns:xlink="http://www.w3.org/1999/xlink" width="800" zoomAndPan="magnify" viewBox="0 0 600 374.999991" height="500" preserveAspectRatio="xMidYMid meet" version="1.0"><defs><clipPath id="e75eb04911"><path d="M 22.050781 37.5 L 249 37.5 L 249 309.75 L 22.050781 309.75 Z M 22.050781 37.5 " clip-rule="nonzero"/></clipPath><clipPath id="1053317113"><path d="M 22.050781 108 L 179 108 L 179 309.75 L 22.050781 309.75 Z M 22.050781 108 " clip-rule="nonzero"/></clipPath><clipPath id="039564cc3e"><path d="M 332.304688 69.238281 L 562.128906 69.238281 L 562.128906 309.585938 L 332.304688 309.585938 Z M 332.304688 69.238281 " clip-rule="nonzero"/></clipPath></defs><rect x="-60" width="720" fill="#ffffff" y="-37.499999" height="449.999989" fill-opacity="1"/><rect x="-60" width="720" fill="#ffffff" y="-37.499999" height="449.999989" fill-opacity="1"/><rect x="-60" width="720" fill="#000000" y="-37.499999" height="449.999989" fill-opacity="1"/><g clip-path="url(#e75eb04911)"><path fill="#be232f" d="M 248.664062 124.1875 C 247.894531 76.363281 208.90625 37.839844 161.050781 37.753906 C 115.921875 37.679688 70.785156 37.742188 25.65625 37.742188 C 24.519531 37.742188 23.378906 37.742188 22.191406 37.742188 C 22.191406 49.753906 22.191406 61.328125 22.191406 73.148438 C 23.648438 73.148438 24.816406 73.148438 25.976562 73.148438 C 36.457031 73.148438 46.9375 73.148438 57.417969 73.148438 C 91.746094 73.148438 126.082031 72.996094 160.410156 73.199219 C 194.363281 73.40625 218.976562 104.035156 211.9375 136.949219 C 206.847656 160.726562 185.59375 178.003906 160.84375 178.175781 C 139.457031 178.332031 118.066406 178.214844 96.675781 178.214844 C 95.421875 178.214844 94.171875 178.214844 92.753906 178.214844 C 92.753906 190.097656 92.753906 201.609375 92.753906 213.511719 C 93.574219 213.59375 94.191406 213.710938 94.808594 213.710938 C 113.464844 213.703125 132.125 214 150.777344 213.789062 C 186.238281 275.828125 195.75 292.261719 205.359375 308.632812 C 205.582031 309.011719 206.007812 309.347656 206.507812 309.617188 L 246.753906 309.617188 C 236.6875 292.226562 226.710938 274.980469 189.050781 209.101562 C 224.296875 197.257812 249.292969 163.398438 248.664062 124.1875 Z M 248.664062 124.1875 " fill-opacity="1" fill-rule="nonzero"/></g><g clip-path="url(#1053317113)"><path fill="#be232f" d="M 178.148438 125.734375 C 178.148438 115.53125 170.234375 108.070312 159.363281 108.109375 C 114.761719 108.289062 70.164062 108.496094 25.5625 108.703125 C 24.417969 108.707031 23.277344 108.824219 22.050781 108.886719 L 22.050781 309.609375 L 57.398438 309.609375 L 57.398438 144.074219 C 58.863281 143.996094 60.003906 143.886719 61.148438 143.882812 C 93.980469 143.695312 126.820312 143.542969 159.652344 143.328125 C 170.414062 143.257812 178.148438 135.824219 178.148438 125.734375 Z M 178.148438 125.734375 " fill-opacity="1" fill-rule="nonzero"/></g><path fill="#be232f" d="M 449.46875 116.800781 L 318.628906 116.800781 C 338.398438 92.4375 367.554688 77.578125 398.882812 75.894531 L 516.464844 69.574219 C 491.457031 47.066406 458.179688 33.574219 421.722656 34.277344 C 346.230469 35.734375 285.675781 98.453125 286.761719 173.9375 C 287.097656 197.363281 293.308594 219.363281 303.957031 238.5625 L 286.746094 274.261719 L 449.46875 116.800781 " fill-opacity="1" fill-rule="nonzero"/><g clip-path="url(#039564cc3e)"><path fill="#424242" d="M 562.128906 69.574219 L 399.40625 227.039062 L 530.246094 227.039062 C 510.476562 251.398438 481.324219 266.257812 449.992188 267.945312 L 332.414062 274.261719 C 357.417969 296.769531 390.699219 310.265625 427.15625 309.558594 C 502.648438 308.101562 563.203125 245.386719 562.117188 169.902344 C 561.777344 146.472656 555.566406 124.472656 544.921875 105.277344 L 562.128906 69.574219 " fill-opacity="1" fill-rule="nonzero"/></g></svg>